#!OML:ASF F:\VICON\USERDATA\INSTALL\rory3\rory3.ASF
:FULLY-SPECIFIED
:DEGREES
682
root 2.99573 16.2318 6.59767 13.9321 -7.92002 0.602049
lowerback 2.28444 -0.53972 0.302474
upperback -4.31775 -0.713562 -0.0136596
thorax -5.75518 -0.369934 -0.131635
lowerneck -15.2825 -8.96625 -8.12864
upperneck 17.5227 -11.5612 5.49512
head 8.79114 -5.45475 1.71213
rclavicle 4.24405e-014 -1.04362e-015
rhumerus -43.8717 -0.621608 -79.761
rradius 54.1068
rwrist 9.3079
rhand -25.7926 -59.1993
rfingers 7.12502
rthumb 0.746098 -89.1777
lclavicle 4.24405e-014 -1.04362e-015
lhumerus -40.8387 -21.5355 82.543
lradius 69.1368
lwrist -6.29656
lhand -31.3815 -47.6053
lfingers 7.12502
lthumb -4.65156 -17.6763
rfemur -88.4549 3.70634 16.2924
rtibia 124.503
rfoot -7.77976 -9.24066
rtoes -6.65922
lfemur -33.4279 7.15549 -27.2208
ltibia 51.0568
lfoot -27.4687 7.51881
ltoes -8.93083
683
root 2.95132 16.3195 6.61351 13.8661 -8.24031 0.455416
lowerback 2.44936 -0.440306 0.437277
upperback -4.33493 -0.571362 0.00838103
thorax -5.86845 -0.30493 -0.193142
lowerneck -15.7852 -8.85202 -8.1434
upperneck 18.0758 -11.4146 5.58342
head 9.06664 -5.3607 1.73756
rclavicle -1.80397e-014 7.50412e-015
rhumerus -44.1832 0.280839 -79.8861
rradius 55.317
rwrist 9.20305
rhand -26.6324 -58.4246
rfingers 7.12502
rthumb -0.0650149 -88.4044
lclavicle -1.80397e-014 7.50412e-015
lhumerus -41.0185 -22.5721 82.5825
lradius 70.9197
lwrist -6.44763
lhand -31.5391 -46.926
lfingers 7.12502
lthumb -4.80367 -17.0005
rfemur -87.5008 4.09018 16.307
rtibia 123.527
rfoot -7.84496 -9.56685
rtoes -4.2737
lfemur -32.5697 7.16743 -26.8341
ltibia 49.7847
lfoot -26.8867 7.43306
ltoes -8.95336
684
root 2.91994 16.4169 6.65416 13.8256 -8.58993 0.425337
lowerback 2.33179 -0.37905 0.711074
upperback -4.42117 -0.478677 -0.050845
thorax -5.89435 -0.273267 -0.415382
lowerneck -15.8678 -8.66179 -8.13244
upperneck 18.4816 -11.1831 5.62104
head 9.20642 -5.24278 1.77447
rclavicle 1.52381e-014 9.88954e-015
rhumerus -44.7747 1.4189 -79.9876
rradius 56.6675
rwrist 9.52846
rhand -27.1195 -55.2016
rfingers 7.12502
rthumb -0.535523 -85.1807
lclavicle 1.52381e-014 9.88954e-015
lhumerus -41.4201 -23.5882 82.6088
lradius 72.6739
lwrist -6.78886
lhand -32.9541 -45.3755
lfingers 7.12502
lthumb -6.16988 -15.4853
rfemur -86.3921 4.13113 16.1017
rtibia 122.783
rfoot -8.05807 -9.80689
rtoes -5.4553
lfemur -31.4592 6.95732 -26.6548
ltibia 48.3069
lfoot -26.2692 7.87708
ltoes -9.3687
685
root 2.87281 16.5142 6.70222 13.9561 -9.51862 0.153411
lowerback 1.91967 -0.103969 0.849015
upperback -4.55511 -0.102641 0.0287979
thorax -5.79413 -0.0913691 -0.438349
lowerneck -15.8059 -8.51498 -8.37864
upperneck 18.9448 -10.9774 5.72151
head 9.36223 -5.1516 1.87427
rclavicle 1.55922e-014 6.16232e-015
rhumerus -45.6515 2.76751 -80.034
rradius 58.557
rwrist 10.4361
rhand -27.5192 -53.4158
rfingers 7.12502
rthumb -0.921522 -83.3936
lclavicle 1.55922e-014 6.16232e-015
lhumerus -41.918 -24.4984 82.7135
lradius 74.5035
lwrist -6.89831
lhand -31.6621 -46.6014
lfingers 7.12502
lthumb -4.92246 -16.6785
rfemur -85.7064 4.92804 16.2301
rtibia 122.184
rfoot -7.91457 -10.5007
rtoes -6.86596
lfemur -30.3827 7.10237 -26.2639
ltibia 46.5255
lfoot -25.5347 8.52913
ltoes -9.91622
686
root 2.81974 16.6028 6.69333 15.0741 -9.0305 0.00132004
lowerback 1.18547 -0.285106 1.01247
upperback -5.0564 -0.333864 0.259861
thorax -5.90488 -0.210775 -0.275825
lowerneck -15.9354 -8.4415 -8.66572
upperneck 19.4305 -10.8247 5.72523
head 9.5617 -5.09406 1.93337
rclavicle 1.01132e-014 1.51076e-014
rhumerus -46.2493 4.064 -79.9909
rradius 60.35
rwrist 11.6586
rhand -27.911 -52.8598
rfingers 7.12502
rthumb -1.29996 -82.8356
lclavicle 1.01132e-014 1.51076e-014
lhumerus -42.309 -25.3301 82.936
lradius 75.9911
lwrist -7.46123
lhand -32.552 -45.7108
lfingers 7.12502
lthumb -5.7817 -15.8096
rfemur -86.5995 3.87553 16.5494
rtibia 121.876
rfoot -7.73589 -10.6201
rtoes -6.89893
lfemur -30.6162 5.77903 -25.7888
ltibia 44.6
lfoot -24.2557 9.11389
ltoes -10.7934
687
root 2.77386 16.7403 6.72678 15.6059 -8.92335 -0.361837
lowerback 0.639078 -0.354766 1.49204
upperback -5.27504 -0.405384 0.475181
thorax -5.82626 -0.264691 -0.318707
lowerneck -16.2255 -8.30827 -8.66624
upperneck 19.8222 -10.5904 5.52274
head 9.72208 -4.99803 1.88538
rclavicle 1.37161e-014 -5.96354e-015
rhumerus -46.5719 5.40158 -80.0205
rradius 61.7481
rwrist 12.7654
rhand -27.2134 -52.0705
rfingers 7.12502
rthumb -0.626179 -82.0494
lclavicle 1.37161e-014 -5.96354e-015
lhumerus -42.6711 -26.0455 83.0756
lradius 77.6347
lwrist -7.24275
lhand -32.1132 -45.5409
lfingers 7.12502
lthumb -5.358 -15.6286
rfemur -86.3677 3.49613 16.8398
rtibia 121.21
rfoot -8.30728 -10.652
rtoes -5.93242
lfemur -29.7019 4.64585 -25.0636
ltibia 42.2881
lfoot -22.9293 9.91649
ltoes -11.6142
688
root 2.72673 16.8987 6.76962 16.0488 -9.17604 -0.748985
lowerback 0.322113 -0.31396 1.85837
upperback -5.59538 -0.330084 0.706699
thorax -5.9843 -0.242242 -0.2875
lowerneck -16.4808 -8.13767 -8.59799
upperneck 20.3178 -10.2831 5.12793
head 9.89365 -4.8861 1.77186
rclavicle -3.19298e-015 6.75868e-015
rhumerus -47.0638 6.84566 -80.0329
rradius 62.8719
rwrist 13.5897
rhand -26.0372 -52.3467
rfingers 7.12502
rthumb 0.509792 -82.3258
lclavicle -3.19298e-015 6.75868e-015
lhumerus -43.2055 -26.74 83.3064
lradius 79.144
lwrist -6.7832
lhand -31.8576 -45.4423
lfingers 7.12502
lthumb -5.11124 -15.5239
rfemur -86.0372 3.46047 17.0591
rtibia 120.444
rfoot -8.76479 -10.6704
rtoes -5.54586
lfemur -28.4926 3.49103 -24.3086
ltibia 39.704
lfoot -21.2953 10.8343
ltoes -12.2031
689
root 2.6837 17.0673 6.81878 16.3818 -9.46466 -1.11521
lowerback 0.157232 -0.23723 2.25975
upperback -6.01473 -0.200918 0.918569
thorax -6.33545 -0.198676 -0.296721
lowerneck -16.3035 -7.90882 -8.60733
upperneck 20.775 -9.92644 4.80864
head 9.97953 -4.76115 1.71935
rclavicle 4.27387e-015 -6.36111e-015
rhumerus -47.8968 8.27825 -80.0216
rradius 63.8799
rwrist 14.368
rhand -26.3575 -51.2715
rfingers 7.12502
rthumb 0.200428 -81.2511
lclavicle 4.27387e-015 -6.36111e-015
lhumerus -44.0901 -27.5035 83.7765
lradius 80.4452
lwrist -6.35355
lhand -31.9393 -44.879
lfingers 7.12502
lthumb -5.19016 -14.9626
rfemur -85.4116 3.39592 17.185
rtibia 119.632
rfoot -8.96449 -10.7444
rtoes -5.55864
lfemur -26.82 2.06381 -23.5633
ltibia 36.5373
lfoot -19.1043 11.9768
ltoes -13.2976
690
root 2.63553 17.2379 6.85837 16.8068 -9.50589 -1.48715
lowerback -0.199692 -0.250559 2.68767
upperback -6.34347 -0.198622 1.1498
thorax -6.48391 -0.218226 -0.294399
lowerneck -16.3429 -7.69149 -8.6099
upperneck 21.2186 -9.60699 4.65916
head 10.114 -4.62997 1.71155
rclavicle 3.51476e-014 -1.64991e-014
rhumerus -48.5059 9.71332 -80.0822
rradius 64.9625
rwrist 14.9595
rhand -27.0577 -50.3372
rfingers 7.12502
rthumb -0.475823 -80.3164
lclavicle 3.51476e-014 -1.64991e-014
lhumerus -44.9037 -28.2008 84.1726
lradius 81.6799
lwrist -5.87028
lhand -31.9113 -44.2561
lfingers 7.12502
lthumb -5.16306 -14.339
rfemur -84.8074 3.1922 17.3787
rtibia 118.786
rfoot -9.48381 -11.023
rtoes -5.39112
lfemur -25.3395 0.395603 -22.7225
ltibia 33.4666
lfoot -16.5602 13.0251
ltoes -14.8055
